<?xml version="1.0" standalone="no"?><!DOCTYPE svg PUBLIC "-//W3C//DTD SVG 1.1//EN" "http://www.w3.org/Graphics/SVG/1.1/DTD/svg11.dtd"><svg t="1556091538209" class="icon" style="" viewBox="0 0 1024 1024" version="1.1" xmlns="http://www.w3.org/2000/svg" p-id="1912" xmlns:xlink="http://www.w3.org/1999/xlink" width="16" height="16"><defs><style type="text/css"></style></defs><path d="M512.007134 106.485668s-17.421158 5.807053-29.035264-17.421158S413.287237 1.958719 314.567341 1.958719C210.040392 7.765772 128.741654 89.06451 134.548706 193.591459 140.355759 292.311356 198.426286 466.522938 459.743659 605.892203c11.614105 11.614105 11.614105 23.228211 11.614106 23.228211v168.404529s5.807053 23.228211-17.421158 23.228211c-23.228211-5.807053-29.035264-40.649369-29.035264-40.649369s-29.035264-87.105791-92.912844-127.75516C273.917972 611.699256 210.040392 565.242834 93.899337 542.014623c-5.807053 104.526949 29.035264 249.703268 87.105791 319.3879 98.719896 127.75516 232.282109 156.790424 319.3879 162.597477 116.141055 0 267.124426-58.070527 342.616112-180.018635 87.105791-116.141055 81.298738-307.773795 81.298738-307.773795s-139.369266 23.228211-243.896215 116.141055c-63.87758 52.263475-81.298738 104.526949-87.105791 116.141055-17.421158 23.228211-11.614105 34.842316-29.035263 58.070527-23.228211 17.421158-17.421158 0-23.228211-23.228211V640.73452s-5.807053-29.035264 29.035263-40.64937C709.446927 524.593465 808.166823 408.45241 854.623245 292.311356c58.070527-116.141055 23.228211-261.317373-127.75516-290.352637-116.141055-17.421158-185.825687 87.105791-185.825687 87.105791s-11.614105 17.421158-29.035264 17.421158z" p-id="1913"></path></svg>