<?xml version="1.0" standalone="no"?><!DOCTYPE svg PUBLIC "-//W3C//DTD SVG 1.1//EN" "http://www.w3.org/Graphics/SVG/1.1/DTD/svg11.dtd"><svg t="1556070150097" class="icon" style="" viewBox="0 0 1024 1024" version="1.1" xmlns="http://www.w3.org/2000/svg" p-id="2025" xmlns:xlink="http://www.w3.org/1999/xlink" width="16" height="16"><defs><style type="text/css"></style></defs><path d="M831.488 417.792C831.488 417.792 831.488 417.792 831.488 417.792c0-143.36-114.688-258.048-253.952-258.048-98.304 0-184.32 57.344-225.28 139.264C327.68 290.816 307.2 286.72 286.72 286.72c-90.112 0-159.744 73.728-159.744 159.744 0 16.384 4.096 28.672 8.192 40.96C57.344 516.096 0 585.728 0 671.744c0 106.496 86.016 192.512 192.512 192.512l319.488 0-253.952-258.048 126.976 0 0-192.512 258.048 0 0 192.512 126.976 0-258.048 258.048 319.488 0L831.488 860.16c106.496-16.384 192.512-110.592 192.512-221.184C1024 524.288 937.984 430.08 831.488 417.792z" p-id="2026"></path></svg>