<?xml version="1.0" standalone="no"?><!DOCTYPE svg PUBLIC "-//W3C//DTD SVG 1.1//EN" "http://www.w3.org/Graphics/SVG/1.1/DTD/svg11.dtd"><svg t="1555588619065" class="icon" style="" viewBox="0 0 1024 1024" version="1.1" xmlns="http://www.w3.org/2000/svg" p-id="1036" xmlns:xlink="http://www.w3.org/1999/xlink" width="64" height="64"><defs><style type="text/css"></style></defs><path d="M377.51466667 713.15911111c0 94.32177778-76.45866667 170.66666667-170.66666667 170.66666667s-170.66666667-76.45866667-170.66666667-170.66666667 76.45866667-170.66666667 170.66666667-170.66666666 170.66666667 76.45866667 170.66666667 170.66666666z m-170.66666667 88.74666667c49.03822222 0 88.74666667-39.70844445 88.74666667-88.74666667s-39.70844445-88.74666667-88.74666667-88.74666666-88.74666667 39.70844445-88.74666667 88.74666666 39.70844445 88.74666667 88.74666667 88.74666667zM510.86222222 396.40177778c-94.208 0-170.66666667-76.45866667-170.66666667-170.66666667s76.45866667-170.66666667 170.66666667-170.66666666 170.66666667 76.45866667 170.66666667 170.66666666-76.45866667 170.66666667-170.66666667 170.66666667z m0-259.41333333c-49.03822222 0-88.74666667 39.70844445-88.74666667 88.74666666s39.70844445 88.74666667 88.74666667 88.74666667 88.74666667-39.70844445 88.74666667-88.74666667-39.70844445-88.74666667-88.74666667-88.74666666z m307.2 405.504c94.32177778 0 170.66666667 76.45866667 170.66666667 170.66666666s-76.45866667 170.66666667-170.66666667 170.66666667-170.66666667-76.45866667-170.66666667-170.66666667 76.45866667-170.66666667 170.66666667-170.66666666z m0 259.41333333c49.03822222 0 88.74666667-39.70844445 88.74666667-88.74666667s-39.70844445-88.74666667-88.74666667-88.74666666-88.74666667 39.70844445-88.74666667 88.74666666 39.70844445 88.74666667 88.74666667 88.74666667z m13.65333333-285.80977778c-13.19822222-90.90844445-64.17066667-169.52888889-136.41955555-219.70488889 8.41955555-21.95911111 13.08444445-45.85244445 13.08444445-70.76977778 0-6.03022222-0.22755555-12.06044445-0.79644445-17.97688888C826.59555555 273.74933333 909.08444445 397.88088889 916.48 541.80977778c-25.25866667-14.56355555-54.04444445-23.66577778-84.76444445-25.71377778zM671.06133333 845.14133333c19.91111111 22.07288889 44.60088889 39.59466667 72.47644445 50.97244445C677.66044445 942.30755555 597.44711111 969.38666667 510.86222222 969.38666667c-86.016 0-165.77422222-26.73777778-231.53777777-72.36266667 28.21688889-11.15022222 53.248-28.55822222 73.38666666-50.63111111 46.87644445 26.16888889 100.69333333 41.07377778 158.15111111 41.07377778 58.25422222 0 112.98133333-15.36 160.19911111-42.32533334zM326.42844445 296.50488889c-72.36266667 50.06222222-123.33511111 128.91022222-136.41955556 219.93244444-30.83377778 2.61688889-59.73333333 12.288-84.87822222 27.42044445 6.82666667-144.83911111 89.42933333-269.76711111 209.00977778-336.09955556-0.45511111 5.91644445-0.79644445 11.94666667-0.79644445 17.97688889 0 24.91733333 4.66488889 48.81066667 13.08444445 70.76977778z" p-id="1037" fill="#dbdbdb"></path></svg>