<?xml version="1.0" standalone="no"?><!DOCTYPE svg PUBLIC "-//W3C//DTD SVG 1.1//EN" "http://www.w3.org/Graphics/SVG/1.1/DTD/svg11.dtd"><svg t="1562578235969" class="icon" viewBox="0 0 1024 1024" version="1.1" xmlns="http://www.w3.org/2000/svg" p-id="2645" xmlns:xlink="http://www.w3.org/1999/xlink" width="128" height="128"><defs><style type="text/css"></style></defs><path d="M973.95780267 356.95274667l-454.37201067-195.40650667a21.89994667 21.89994667 0 0 0-8.667136-1.80224c-2.94912 0-5.89277867 0.60074667-8.68898133 1.80224L47.86312533 356.95274667c-9.57917867 4.10146133-15.925248 14.565376-15.925248 26.230784 0 11.68725333 6.34606933 22.12386133 15.925248 26.247168L502.22421333 604.84266667a21.643264 21.643264 0 0 0 17.35611734 0l353.26634666-151.928832v155.42954666c-18.93444267 10.027008-32.09079467 31.83957333-32.09079466 57.20200534 0 25.36789333 13.156352 47.17499733 32.09079466 57.20200533v54.22011733h46.53056v-54.20919466c18.94536533-10.027008 32.11264-31.83957333 32.11264-57.212928s-13.16727467-47.18592-32.11264-57.212928V432.90350933l54.575104-23.47281066c9.57371733-4.12330667 15.91978667-14.565376 15.91978667-26.247168 0-11.665408-6.34606933-22.12932267-15.91978667-26.230784z m-463.03914667 287.10775466a51.167232 51.167232 0 0 1-20.299776-4.22161066L207.36682667 518.00746667v168.214528c0 137.773056 206.569472 179.13173333 271.1552 179.13173333h64.73864533c48.381952 0 271.17704533-41.35867733 271.17704533-179.13173333v-168.20906667l-283.262976 121.82596267a50.94877867 50.94877867 0 0 1-20.26154666 4.22161066z" fill="#272636" p-id="2646"></path></svg>