<?xml version="1.0" standalone="no"?><!DOCTYPE svg PUBLIC "-//W3C//DTD SVG 1.1//EN" "http://www.w3.org/Graphics/SVG/1.1/DTD/svg11.dtd"><svg t="1562578130978" class="icon" viewBox="0 0 1024 1024" version="1.1" xmlns="http://www.w3.org/2000/svg" p-id="2520" xmlns:xlink="http://www.w3.org/1999/xlink" width="128" height="128"><defs><style type="text/css"></style></defs><path d="M716.46185472 800.30041202c-110.98991843-17.39806151-147.37297522-55.97232014-147.42303971-55.97232015l-3.31241928-3.51733532 0 0.06054343c-11.805952-11.27852601-15.81694862-31.26248675-16.96028558-48.64890425 72.1222565-55.51708046 128.08875577-160.79380366 128.08875577-278.62977763 0-188.71592733-126.21307677-257.54206549-225.36444359-257.54206549-99.12924501 0-226.67427499 68.82613817-226.67427499 257.54206549 0 117.83597397 57.38111773 223.11269603 129.52549604 278.67402126-1.08745159 17.28745245-5.1263909 37.27024925-17.01500815 48.60466176l-2.57425635 2.76287261c-0.37723136 0.37723136-36.62173639 39.21229255-148.13325995 56.66624056-15.68887581 0.53790379-81.19793664 6.70750379-109.44257024 70.42471481-15.52820338 35.0406235-9.21539584 60.67723719-1.17011683 75.938816 19.07348139 36.31086933 61.04282567 40.91565625 71.44463701 41.56999111l603.69513472 0c14.62470997 0 63.81734002-3.10168235 82.24114574-43.28965461 7.86131968-17.01500814 12.03298987-45.07102549-12.23906986-82.12471581C789.98708679 815.35241899 742.03675875 801.32149931 716.46185472 800.30041202zM997.88244651 770.11489906c-21.88641849-34.08008078-55.5834459-44.14424747-73.57529771-44.91035307-77.97516857-12.40439922-103.53959481-40.08900722-103.59548131-40.08900722l-2.27969024-2.49042716c-8.28861667-8.06623573-11.1562752-22.48020878-11.91655994-34.9742592 50.65731299-39.83402667 86.5851301-109.82562361 86.5851301-194.42446678 0-135.49017998-87.56197376-198.08617472-157.23688277-198.08617472-13.38124288 0-27.09547463 2.05265237-40.53260402 6.36287204 3.68382976 10.69637859 6.88447715 21.79793237 9.75912164 33.23130994l-8.56571904 0c0 0 48.44398819 159.27323421-9.47619727 295.11735978-2.76869347-2.94566685-5.53156608-5.5862875-8.18848654-8.9429504-8.55989703 17.42018219-18.25265323 33.40944611-28.98745344 47.87231972 6.29185081 6.87399822 12.90388253 13.33117838 20.00026056 18.86856534-0.76028473 12.44398592-3.63376526 26.79625045-12.03298987 34.92885162l-1.79184981 1.99676587c-0.15485155 0.16067243-14.34644366 15.49560263-53.3642991 28.49961415 28.39366315 3.02367403 58.09133682 7.47826745 86.79586702 13.64786631 0.7661056-0.75446272 1.40879758-1.52056946 1.95252224-2.05847325 1.57529088-1.63117739 2.82341603-3.3566629 4.28809899-5.0926262 5.30336427 2.82341603 11.69534407 6.22432142 20.47180003 11.04566727 44.37710621 24.38266653 124.40492601 64.47167374 137.57543197 79.25705728l-2.06429525 0c14.35808654 17.61461931 27.25614706 37.87568242 37.11539768 59.44541298l63.23402866 0c10.29120341 0 41.44773917-11.37865501 54.39702926-40.14955065l0.0500645 0C1011.97390962 816.86716643 1014.95217721 796.71671239 997.88244651 770.11489906z" p-id="2521"></path></svg>