<?xml version="1.0" standalone="no"?><!DOCTYPE svg PUBLIC "-//W3C//DTD SVG 1.1//EN" "http://www.w3.org/Graphics/SVG/1.1/DTD/svg11.dtd"><svg t="1556070182309" class="icon" style="" viewBox="0 0 1024 1024" version="1.1" xmlns="http://www.w3.org/2000/svg" p-id="2134" xmlns:xlink="http://www.w3.org/1999/xlink" width="16" height="16"><defs><style type="text/css"></style></defs><path d="M606.0375 558.7C601.8125 557.2875 575.15 545.0125 591.8 493.25L591.575 493.25c43.425-45.7625 76.6125-119.35 76.6125-191.825 0-111.4375-72.5-169.7875-156.6625-169.7875s-156.25 58.3875-156.25 169.7875c0 72.75 33 146.6625 76.675 192.2875 17.025 45.675-13.425 62.6125-19.8 65-88.175 32.625-191.625 92.1125-191.625 150.7625L220.525 731.5c0 80 150.725 162.5 291.0125 162.5 140.5 0 291.0125-82.575 291.0125-162.5L802.55 709.5c0-60.4625-103.9625-119.4375-196.475-150.7625l0 0ZM554.375 626.7375l-40 0 30.275 111.9875L511.5 773 478.25 738.725 508.8125 626.7375 468.625 626.7375 468.625 607.1625 554.375 607.1625 554.375 626.7375l0 0Z" p-id="2135"></path><path d="M512 0C229.225 0 0 229.225 0 512S229.225 1024 512 1024 1024 794.775 1024 512 794.775 0 512 0ZM512 980.75C253.1125 980.75 43.25 770.8875 43.25 512S253.1125 43.25 512 43.25 980.75 253.1125 980.75 512 770.8875 980.75 512 980.75Z" p-id="2136"></path></svg>