<?xml version="1.0" standalone="no"?><!DOCTYPE svg PUBLIC "-//W3C//DTD SVG 1.1//EN" "http://www.w3.org/Graphics/SVG/1.1/DTD/svg11.dtd"><svg t="1556074093974" class="icon" style="" viewBox="0 0 1024 1024" version="1.1" xmlns="http://www.w3.org/2000/svg" p-id="5497" xmlns:xlink="http://www.w3.org/1999/xlink" width="16" height="16"><defs><style type="text/css"></style></defs><path d="M556.114883 513.336815c0 24.062663-18.715405 42.778068-42.778068 42.778068-26.736292 0-45.451697-18.715405-45.451697-42.778068 0-26.736292 18.715405-45.451697 45.451697-45.451697 24.062663 0 42.778068 18.715405 42.778068 45.451697zm467.885117 0c0-283.4047-229.932115-513.336815-510.663185-513.336815-283.4047 0-513.336815 229.932115-513.336815 513.336815 0 280.73107 229.932115 510.663185 513.336815 510.663185 280.73107 0 510.663185-229.932115 510.663185-510.663185zm-510.663185-385.002611c18.715405 0 37.430809 56.146214 37.430809 125.660574 0 69.51436-18.715405 125.660574-37.430809 125.660574-21.389034 0-40.104439-56.146214-40.104439-125.660574 0-69.51436 18.715405-125.660574 40.104439-125.660574zm0-50.798956c45.451697 0 85.556136 77.535248 85.556136 176.45953 0 96.250653-40.104439 176.45953-85.556136 176.45953-48.125326 0-88.229765-80.208877-88.229765-176.45953 0-98.924282 40.104439-176.45953 88.229765-176.45953zm0 569.483029c18.715405 0 37.430809 56.146214 37.430809 122.986945 0 69.51436-18.715405 125.660574-37.430809 125.660574-21.389034 0-40.104439-56.146214-40.104439-125.660574 0-66.840731 18.715405-122.986945 40.104439-122.986945zm0-53.472585c45.451697 0 85.556136 80.208877 85.556136 176.45953 0 98.924282-40.104439 179.133159-85.556136 179.133159-48.125326 0-88.229765-80.208877-88.229765-179.133159 0-96.250653 40.104439-176.45953 88.229765-176.45953zm-334.203655-272.710183c10.694517-18.715405 66.840731-5.347258 128.334204 29.409922 58.819843 34.75718 98.924282 77.535248 88.229765 96.250653-10.694517 16.041775-66.840731 2.673629-125.660574-29.409922-61.493473-34.75718-101.597911-77.535248-90.903394-96.250653zm-45.451697-26.736292c24.062663-40.104439 112.292428-34.75718 197.848564 13.368146 85.556136 48.125326 133.681462 122.986945 109.618799 163.091384-24.062663 42.778068-112.292428 34.75718-195.174935-13.368146-85.556136-48.125326-136.355091-120.313316-112.292428-163.091384zm494.62141 286.078329c10.694517-18.715405 66.840731-5.347258 128.334204 29.409922 58.819843 34.75718 98.924282 77.535248 88.229765 93.577023-10.694517 18.715405-66.840731 5.347258-128.334204-29.409922-58.819843-34.75718-98.924282-77.535248-88.229765-93.577023zm-45.451697-26.736292c24.062663-42.778068 112.292428-34.75718 197.848564 13.368146 82.882507 48.125326 133.681462 122.986945 109.618799 163.091384-24.062663 42.778068-112.292428 34.75718-197.848564-13.368146-82.882507-48.125326-133.681462-122.986945-109.618799-163.091384zm-403.718016 149.723238c-10.694517-16.041775 29.409922-58.819843 90.903394-93.577023 58.819843-34.75718 114.966057-48.125326 125.660574-29.409922 10.694517 16.041775-29.409922 58.819843-88.229765 93.577023-61.493473 34.75718-117.639687 48.125326-128.334204 29.409922zm-45.451697 26.736292c-24.062663-40.104439 26.736292-114.966057 112.292428-163.091384 82.882507-48.125326 171.112272-56.146214 195.174935-13.368146 24.062663 40.104439-24.062663 114.966057-109.618799 163.091384-85.556136 48.125326-173.785901 56.146214-197.848564 13.368146zm494.62141-283.4047c-10.694517-18.715405 29.409922-61.493473 88.229765-96.250653 61.493473-34.75718 117.639687-48.125326 128.334204-29.409922 10.694517 18.715405-29.409922 61.493473-88.229765 96.250653-61.493473 32.083551-117.639687 45.451697-128.334204 29.409922zm-45.451697 24.062663c-24.062663-40.104439 26.736292-114.966057 109.618799-163.091384 85.556136-48.125326 173.785901-53.472585 197.848564-13.368146 24.062663 42.778068-26.736292 114.966057-109.618799 163.091384-85.556136 48.125326-173.785901 56.146214-197.848564 13.368146z" p-id="5498"></path></svg>