<?xml version="1.0" standalone="no"?><!DOCTYPE svg PUBLIC "-//W3C//DTD SVG 1.1//EN" "http://www.w3.org/Graphics/SVG/1.1/DTD/svg11.dtd"><svg t="1562578373926" class="icon" viewBox="0 0 1024 1024" version="1.1" xmlns="http://www.w3.org/2000/svg" p-id="2526" xmlns:xlink="http://www.w3.org/1999/xlink" width="128" height="128"><defs><style type="text/css"></style></defs><path d="M957.725 107H231.2a34.2 34.2 0 0 0-34.2 33.75c0 18.1125 15.3 33.75 34.2 33.75H962v719.775c0 37.2375-33.075 67.725-73.40625 67.725H202.90625c-40.3875 0-73.40625-30.4875-73.40625-67.725v-48.15h24.80625c22.3875 0 40.5-18.3375 40.5-40.95v-61.3125a40.725 40.725 0 0 0-40.5-40.95H129.5V580.175h24.80625c22.3875 0 40.5-18.3375 40.5-40.89375V477.9125a40.725 40.725 0 0 0-40.5-40.95H129.5V314.28125h24.80625c22.3875 0 40.5-18.3375 40.5-40.95v-61.3125a40.725 40.725 0 0 0-40.5-40.95H129.5v-41.34375C129.5 92.4875 162.51875 62 202.90625 62h685.6875c31.725 0 58.95 18.84375 69.13125 45zM89.7875 293.6375C74.43125 293.6375 62 279.9125 62 262.98125v-40.89375C62 205.15625 74.43125 191.375 89.7875 191.375h55.575c15.35625 0 27.7875 13.725 27.7875 30.65625v40.89375c0 16.875-12.43125 30.65625-27.7875 30.65625H89.7875z m0 265.66875C74.43125 559.30625 62 545.58125 62 528.65V487.8125c0-16.93125 12.43125-30.65625 27.7875-30.65625h55.575c15.35625 0 27.7875 13.725 27.7875 30.65625v40.8375c0 16.93125-12.43125 30.65625-27.7875 30.65625H89.7875z m55.575 265.725H89.7875c-15.35625 0-27.7875-13.725-27.7875-30.65625v-40.89375c0-16.875 12.43125-30.65625 27.7875-30.65625h55.575c15.35625 0 27.7875 13.725 27.7875 30.65625v40.89375c0 16.93125-12.43125 30.65625-27.7875 30.65625z m597.375-172.35C716.01875 635.75 639.0125 624.5 639.0125 624.5s-50.00625 50.79375-71.15625 50.79375c-21.2625 0-71.15625-50.79375-71.15625-50.79375s-77.00625 11.25-103.725 28.125c-26.71875 17.04375-38.53125 106.875-38.53125 106.875h427.5s-7.7625-86.85-39.31875-106.875zM568.25 579.5a123.75 123.75 0 1 0 0-247.5 123.75 123.75 0 0 0 0 247.5z" fill="#666666" p-id="2527"></path></svg>